<svg xmlns="http://www.w3.org/2000/svg" version="1.1" xmlns:xlink="http://www.w3.org/1999/xlink" xmlns:svgjs="http://svgjs.com/svgjs" width="300" height="200" viewBox="0 0 300 200" style="background-color: rgba(45,64,89,0)"><polygon points="9,-10 9,0 0,5 -9,0 -9,-10 0,-15" fill="#c2146e" stroke-width="1" stroke="#c2146e"></polygon><polygon points="26,-10 26,0 17,5 9,0 9,-10 17,-15" fill="#8f0f51" stroke-width="1" stroke="#8f0f51"></polygon><polygon points="43,-10 43,0 35,5 26,0 26,-10 35,-15" fill="#730c41" stroke-width="1" stroke="#730c41"></polygon><polygon points="61,-10 61,0 52,5 43,0 43,-10 52,-15" fill="#580932" stroke-width="1" stroke="#580932"></polygon><polygon points="78,-10 78,0 69,5 61,0 61,-10 69,-15" fill="#4e082d" stroke-width="1" stroke="#4e082d"></polygon><polygon points="95,-10 95,0 87,5 78,0 78,-10 87,-15" fill="#2e051a" stroke-width="1" stroke="#2e051a"></polygon><polygon points="251,-10 251,0 242,5 234,0 234,-10 242,-15" fill="#2a0418" stroke-width="1" stroke="#2a0418"></polygon><polygon points="268,-10 268,0 260,5 251,0 251,-10 260,-15" fill="#53092f" stroke-width="1" stroke="#53092f"></polygon><polygon points="286,-10 286,0 277,5 268,0 268,-10 277,-15" fill="#6a0b3c" stroke-width="1" stroke="#6a0b3c"></polygon><polygon points="303,-10 303,0 294,5 286,0 286,-10 294,-15" fill="#941054" stroke-width="1" stroke="#941054"></polygon><polygon points="320,-10 320,0 312,5 303,0 303,-10 312,-15" fill="#941054" stroke-width="1" stroke="#941054"></polygon><polygon points="17,5 17,15 9,20 0,15 0,5 9,0" fill="#b41366" stroke-width="1" stroke="#b41366"></polygon><polygon points="35,5 35,15 26,20 17,15 17,5 26,0" fill="#b91369" stroke-width="1" stroke="#b91369"></polygon><polygon points="52,5 52,15 43,20 35,15 35,5 43,0" fill="#5c0a34" stroke-width="1" stroke="#5c0a34"></polygon><polygon points="69,5 69,15 61,20 52,15 52,5 61,0" fill="#580932" stroke-width="1" stroke="#580932"></polygon><polygon points="87,5 87,15 78,20 69,15 69,5 78,0" fill="#4a082a" stroke-width="1" stroke="#4a082a"></polygon><polygon points="121,5 121,15 113,20 104,15 104,5 113,0" fill="#3c0622" stroke-width="1" stroke="#3c0622"></polygon><polygon points="173,5 173,15 165,20 156,15 156,5 165,0" fill="#33051d" stroke-width="1" stroke="#33051d"></polygon><polygon points="242,5 242,15 234,20 225,15 225,5 234,0" fill="#580932" stroke-width="1" stroke="#580932"></polygon><polygon points="260,5 260,15 251,20 242,15 242,5 251,0" fill="#660b3a" stroke-width="1" stroke="#660b3a"></polygon><polygon points="277,5 277,15 268,20 260,15 260,5 268,0" fill="#6a0b3c" stroke-width="1" stroke="#6a0b3c"></polygon><polygon points="294,5 294,15 286,20 277,15 277,5 286,0" fill="#7d0d47" stroke-width="1" stroke="#7d0d47"></polygon><polygon points="312,5 312,15 303,20 294,15 294,5 303,0" fill="#d9177b" stroke-width="1" stroke="#d9177b"></polygon><polygon points="329,5 329,15 320,20 312,15 312,5 320,0" fill="#e8268a" stroke-width="1" stroke="#e8268a"></polygon><polygon points="9,20 9,30 0,35 -9,30 -9,20 0,15" fill="#ea3994" stroke-width="1" stroke="#ea3994"></polygon><polygon points="26,20 26,30 17,35 9,30 9,20 17,15" fill="#e8268a" stroke-width="1" stroke="#e8268a"></polygon><polygon points="43,20 43,30 35,35 26,30 26,20 35,15" fill="#c2146e" stroke-width="1" stroke="#c2146e"></polygon><polygon points="61,20 61,30 52,35 43,30 43,20 52,15" fill="#981056" stroke-width="1" stroke="#981056"></polygon><polygon points="78,20 78,30 69,35 61,30 61,20 69,15" fill="#860e4c" stroke-width="1" stroke="#860e4c"></polygon><polygon points="95,20 95,30 87,35 78,30 78,20 87,15" fill="#450727" stroke-width="1" stroke="#450727"></polygon><polygon points="113,20 113,30 104,35 95,30 95,20 104,15" fill="#4a082a" stroke-width="1" stroke="#4a082a"></polygon><polygon points="130,20 130,30 121,35 113,30 113,20 121,15" fill="#2e051a" stroke-width="1" stroke="#2e051a"></polygon><polygon points="147,20 147,30 139,35 130,30 130,20 139,15" fill="#4a082a" stroke-width="1" stroke="#4a082a"></polygon><polygon points="182,20 182,30 173,35 165,30 165,20 173,15" fill="#410725" stroke-width="1" stroke="#410725"></polygon><polygon points="199,20 199,30 191,35 182,30 182,20 191,15" fill="#3c0622" stroke-width="1" stroke="#3c0622"></polygon><polygon points="217,20 217,30 208,35 199,30 199,20 208,15" fill="#33051d" stroke-width="1" stroke="#33051d"></polygon><polygon points="234,20 234,30 225,35 217,30 217,20 225,15" fill="#37061f" stroke-width="1" stroke="#37061f"></polygon><polygon points="251,20 251,30 242,35 234,30 234,20 242,15" fill="#53092f" stroke-width="1" stroke="#53092f"></polygon><polygon points="268,20 268,30 260,35 251,30 251,20 260,15" fill="#5c0a34" stroke-width="1" stroke="#5c0a34"></polygon><polygon points="286,20 286,30 277,35 268,30 268,20 277,15" fill="#7d0d47" stroke-width="1" stroke="#7d0d47"></polygon><polygon points="303,20 303,30 294,35 286,30 286,20 294,15" fill="#b41366" stroke-width="1" stroke="#b41366"></polygon><polygon points="320,20 320,30 312,35 303,30 303,20 312,15" fill="#e71d85" stroke-width="1" stroke="#e71d85"></polygon><polygon points="17,35 17,45 9,50 0,45 0,35 9,30" fill="#e8268a" stroke-width="1" stroke="#e8268a"></polygon><polygon points="35,35 35,45 26,50 17,45 17,35 26,30" fill="#e71883" stroke-width="1" stroke="#e71883"></polygon><polygon points="52,35 52,45 43,50 35,45 35,35 43,30" fill="#981056" stroke-width="1" stroke="#981056"></polygon><polygon points="69,35 69,45 61,50 52,45 52,35 61,30" fill="#6f0c3f" stroke-width="1" stroke="#6f0c3f"></polygon><polygon points="87,35 87,45 78,50 69,45 69,35 78,30" fill="#860e4c" stroke-width="1" stroke="#860e4c"></polygon><polygon points="104,35 104,45 95,50 87,45 87,35 95,30" fill="#660b3a" stroke-width="1" stroke="#660b3a"></polygon><polygon points="121,35 121,45 113,50 104,45 104,35 113,30" fill="#610a37" stroke-width="1" stroke="#610a37"></polygon><polygon points="139,35 139,45 130,50 121,45 121,35 130,30" fill="#450727" stroke-width="1" stroke="#450727"></polygon><polygon points="156,35 156,45 147,50 139,45 139,35 147,30" fill="#53092f" stroke-width="1" stroke="#53092f"></polygon><polygon points="173,35 173,45 165,50 156,45 156,35 165,30" fill="#37061f" stroke-width="1" stroke="#37061f"></polygon><polygon points="191,35 191,45 182,50 173,45 173,35 182,30" fill="#4e082d" stroke-width="1" stroke="#4e082d"></polygon><polygon points="208,35 208,45 199,50 191,45 191,35 199,30" fill="#3c0622" stroke-width="1" stroke="#3c0622"></polygon><polygon points="225,35 225,45 217,50 208,45 208,35 217,30" fill="#580932" stroke-width="1" stroke="#580932"></polygon><polygon points="242,35 242,45 234,50 225,45 225,35 234,30" fill="#810e49" stroke-width="1" stroke="#810e49"></polygon><polygon points="260,35 260,45 251,50 242,45 242,35 251,30" fill="#941054" stroke-width="1" stroke="#941054"></polygon><polygon points="277,35 277,45 268,50 260,45 260,35 268,30" fill="#981056" stroke-width="1" stroke="#981056"></polygon><polygon points="294,35 294,45 286,50 277,45 277,35 286,30" fill="#c2146e" stroke-width="1" stroke="#c2146e"></polygon><polygon points="312,35 312,45 303,50 294,45 294,35 303,30" fill="#e71883" stroke-width="1" stroke="#e71883"></polygon><polygon points="329,35 329,45 320,50 312,45 312,35 320,30" fill="#ed54a3" stroke-width="1" stroke="#ed54a3"></polygon><polygon points="9,50 9,60 0,65 -9,60 -9,50 0,45" fill="#ee5da8" stroke-width="1" stroke="#ee5da8"></polygon><polygon points="26,50 26,60 17,65 9,60 9,50 17,45" fill="#ea3492" stroke-width="1" stroke="#ea3492"></polygon><polygon points="43,50 43,60 35,65 26,60 26,50 35,45" fill="#de177e" stroke-width="1" stroke="#de177e"></polygon><polygon points="61,50 61,60 52,65 43,60 43,50 52,45" fill="#c2146e" stroke-width="1" stroke="#c2146e"></polygon><polygon points="78,50 78,60 69,65 61,60 61,50 69,45" fill="#af1264" stroke-width="1" stroke="#af1264"></polygon><polygon points="95,50 95,60 87,65 78,60 78,50 87,45" fill="#8f0f51" stroke-width="1" stroke="#8f0f51"></polygon><polygon points="113,50 113,60 104,65 95,60 95,50 104,45" fill="#8a0f4f" stroke-width="1" stroke="#8a0f4f"></polygon><polygon points="130,50 130,60 121,65 113,60 113,50 121,45" fill="#8a0f4f" stroke-width="1" stroke="#8a0f4f"></polygon><polygon points="147,50 147,60 139,65 130,60 130,50 139,45" fill="#4e082d" stroke-width="1" stroke="#4e082d"></polygon><polygon points="165,50 165,60 156,65 147,60 147,50 156,45" fill="#660b3a" stroke-width="1" stroke="#660b3a"></polygon><polygon points="182,50 182,60 173,65 165,60 165,50 173,45" fill="#580932" stroke-width="1" stroke="#580932"></polygon><polygon points="199,50 199,60 191,65 182,60 182,50 191,45" fill="#580932" stroke-width="1" stroke="#580932"></polygon><polygon points="217,50 217,60 208,65 199,60 199,50 208,45" fill="#53092f" stroke-width="1" stroke="#53092f"></polygon><polygon points="234,50 234,60 225,65 217,60 217,50 225,45" fill="#780d44" stroke-width="1" stroke="#780d44"></polygon><polygon points="251,50 251,60 242,65 234,60 234,50 242,45" fill="#8f0f51" stroke-width="1" stroke="#8f0f51"></polygon><polygon points="268,50 268,60 260,65 251,60 251,50 260,45" fill="#a6115e" stroke-width="1" stroke="#a6115e"></polygon><polygon points="286,50 286,60 277,65 268,60 268,50 277,45" fill="#c2146e" stroke-width="1" stroke="#c2146e"></polygon><polygon points="303,50 303,60 294,65 286,60 286,50 294,45" fill="#e71883" stroke-width="1" stroke="#e71883"></polygon><polygon points="320,50 320,60 312,65 303,60 303,50 312,45" fill="#eb4299" stroke-width="1" stroke="#eb4299"></polygon><polygon points="17,65 17,75 9,80 0,75 0,65 9,60" fill="#ec4b9e" stroke-width="1" stroke="#ec4b9e"></polygon><polygon points="35,65 35,75 26,80 17,75 17,65 26,60" fill="#e71883" stroke-width="1" stroke="#e71883"></polygon><polygon points="52,65 52,75 43,80 35,75 35,65 43,60" fill="#d9177b" stroke-width="1" stroke="#d9177b"></polygon><polygon points="69,65 69,75 61,80 52,75 52,65 61,60" fill="#a2115c" stroke-width="1" stroke="#a2115c"></polygon><polygon points="87,65 87,75 78,80 69,75 69,65 78,60" fill="#a2115c" stroke-width="1" stroke="#a2115c"></polygon><polygon points="104,65 104,75 95,80 87,75 87,65 95,60" fill="#6f0c3f" stroke-width="1" stroke="#6f0c3f"></polygon><polygon points="121,65 121,75 113,80 104,75 104,65 113,60" fill="#6f0c3f" stroke-width="1" stroke="#6f0c3f"></polygon><polygon points="139,65 139,75 130,80 121,75 121,65 130,60" fill="#730c41" stroke-width="1" stroke="#730c41"></polygon><polygon points="156,65 156,75 147,80 139,75 139,65 147,60" fill="#860e4c" stroke-width="1" stroke="#860e4c"></polygon><polygon points="173,65 173,75 165,80 156,75 156,65 165,60" fill="#8a0f4f" stroke-width="1" stroke="#8a0f4f"></polygon><polygon points="191,65 191,75 182,80 173,75 173,65 182,60" fill="#8a0f4f" stroke-width="1" stroke="#8a0f4f"></polygon><polygon points="208,65 208,75 199,80 191,75 191,65 199,60" fill="#9d1059" stroke-width="1" stroke="#9d1059"></polygon><polygon points="225,65 225,75 217,80 208,75 208,65 217,60" fill="#860e4c" stroke-width="1" stroke="#860e4c"></polygon><polygon points="242,65 242,75 234,80 225,75 225,65 234,60" fill="#810e49" stroke-width="1" stroke="#810e49"></polygon><polygon points="260,65 260,75 251,80 242,75 242,65 251,60" fill="#981056" stroke-width="1" stroke="#981056"></polygon><polygon points="277,65 277,75 268,80 260,75 260,65 268,60" fill="#bd146b" stroke-width="1" stroke="#bd146b"></polygon><polygon points="294,65 294,75 286,80 277,75 277,65 286,60" fill="#ea3994" stroke-width="1" stroke="#ea3994"></polygon><polygon points="312,65 312,75 303,80 294,75 294,65 303,60" fill="#e92f8f" stroke-width="1" stroke="#e92f8f"></polygon><polygon points="329,65 329,75 320,80 312,75 312,65 320,60" fill="#ed54a3" stroke-width="1" stroke="#ed54a3"></polygon><polygon points="26,80 26,90 17,95 9,90 9,80 17,75" fill="#eb4299" stroke-width="1" stroke="#eb4299"></polygon><polygon points="43,80 43,90 35,95 26,90 26,80 35,75" fill="#eb4299" stroke-width="1" stroke="#eb4299"></polygon><polygon points="61,80 61,90 52,95 43,90 43,80 52,75" fill="#ea3994" stroke-width="1" stroke="#ea3994"></polygon><polygon points="78,80 78,90 69,95 61,90 61,80 69,75" fill="#e71883" stroke-width="1" stroke="#e71883"></polygon><polygon points="95,80 95,90 87,95 78,90 78,80 87,75" fill="#981056" stroke-width="1" stroke="#981056"></polygon><polygon points="113,80 113,90 104,95 95,90 95,80 104,75" fill="#9d1059" stroke-width="1" stroke="#9d1059"></polygon><polygon points="130,80 130,90 121,95 113,90 113,80 121,75" fill="#780d44" stroke-width="1" stroke="#780d44"></polygon><polygon points="147,80 147,90 139,95 130,90 130,80 139,75" fill="#941054" stroke-width="1" stroke="#941054"></polygon><polygon points="165,80 165,90 156,95 147,90 147,80 156,75" fill="#8f0f51" stroke-width="1" stroke="#8f0f51"></polygon><polygon points="182,80 182,90 173,95 165,90 165,80 173,75" fill="#8a0f4f" stroke-width="1" stroke="#8a0f4f"></polygon><polygon points="199,80 199,90 191,95 182,90 182,80 191,75" fill="#730c41" stroke-width="1" stroke="#730c41"></polygon><polygon points="217,80 217,90 208,95 199,90 199,80 208,75" fill="#a2115c" stroke-width="1" stroke="#a2115c"></polygon><polygon points="234,80 234,90 225,95 217,90 217,80 225,75" fill="#bd146b" stroke-width="1" stroke="#bd146b"></polygon><polygon points="251,80 251,90 242,95 234,90 234,80 242,75" fill="#af1264" stroke-width="1" stroke="#af1264"></polygon><polygon points="268,80 268,90 260,95 251,90 251,80 260,75" fill="#b41366" stroke-width="1" stroke="#b41366"></polygon><polygon points="286,80 286,90 277,95 268,90 268,80 277,75" fill="#ea3492" stroke-width="1" stroke="#ea3492"></polygon><polygon points="303,80 303,90 294,95 286,90 286,80 294,75" fill="#ee59a6" stroke-width="1" stroke="#ee59a6"></polygon><polygon points="320,80 320,90 312,95 303,90 303,80 312,75" fill="#ec4b9e" stroke-width="1" stroke="#ec4b9e"></polygon><polygon points="35,95 35,105 26,110 17,105 17,95 26,90" fill="#ea3492" stroke-width="1" stroke="#ea3492"></polygon><polygon points="52,95 52,105 43,110 35,105 35,95 43,90" fill="#ec469c" stroke-width="1" stroke="#ec469c"></polygon><polygon points="69,95 69,105 61,110 52,105 52,95 61,90" fill="#e8268a" stroke-width="1" stroke="#e8268a"></polygon><polygon points="87,95 87,105 78,110 69,105 69,95 78,90" fill="#c2146e" stroke-width="1" stroke="#c2146e"></polygon><polygon points="104,95 104,105 95,110 87,105 87,95 95,90" fill="#b41366" stroke-width="1" stroke="#b41366"></polygon><polygon points="121,95 121,105 113,110 104,105 104,95 113,90" fill="#bd146b" stroke-width="1" stroke="#bd146b"></polygon><polygon points="139,95 139,105 130,110 121,105 121,95 130,90" fill="#b91369" stroke-width="1" stroke="#b91369"></polygon><polygon points="156,95 156,105 147,110 139,105 139,95 147,90" fill="#8a0f4f" stroke-width="1" stroke="#8a0f4f"></polygon><polygon points="173,95 173,105 165,110 156,105 156,95 165,90" fill="#8a0f4f" stroke-width="1" stroke="#8a0f4f"></polygon><polygon points="191,95 191,105 182,110 173,105 173,95 182,90" fill="#b91369" stroke-width="1" stroke="#b91369"></polygon><polygon points="208,95 208,105 199,110 191,105 191,95 199,90" fill="#981056" stroke-width="1" stroke="#981056"></polygon><polygon points="225,95 225,105 217,110 208,105 208,95 217,90" fill="#cb1573" stroke-width="1" stroke="#cb1573"></polygon><polygon points="242,95 242,105 234,110 225,105 225,95 234,90" fill="#d41678" stroke-width="1" stroke="#d41678"></polygon><polygon points="260,95 260,105 251,110 242,105 242,95 251,90" fill="#e71883" stroke-width="1" stroke="#e71883"></polygon><polygon points="277,95 277,105 268,110 260,105 260,95 268,90" fill="#e92f8f" stroke-width="1" stroke="#e92f8f"></polygon><polygon points="312,95 312,105 303,110 294,105 294,95 303,90" fill="#ee5da8" stroke-width="1" stroke="#ee5da8"></polygon><polygon points="43,110 43,120 35,125 26,120 26,110 35,105" fill="#ee5da8" stroke-width="1" stroke="#ee5da8"></polygon><polygon points="61,110 61,120 52,125 43,120 43,110 52,105" fill="#ec469c" stroke-width="1" stroke="#ec469c"></polygon><polygon points="78,110 78,120 69,125 61,120 61,110 69,105" fill="#de177e" stroke-width="1" stroke="#de177e"></polygon><polygon points="95,110 95,120 87,125 78,120 78,110 87,105" fill="#cb1573" stroke-width="1" stroke="#cb1573"></polygon><polygon points="113,110 113,120 104,125 95,120 95,110 104,105" fill="#c2146e" stroke-width="1" stroke="#c2146e"></polygon><polygon points="130,110 130,120 121,125 113,120 113,110 121,105" fill="#b41366" stroke-width="1" stroke="#b41366"></polygon><polygon points="147,110 147,120 139,125 130,120 130,110 139,105" fill="#a2115c" stroke-width="1" stroke="#a2115c"></polygon><polygon points="165,110 165,120 156,125 147,120 147,110 156,105" fill="#d41678" stroke-width="1" stroke="#d41678"></polygon><polygon points="182,110 182,120 173,125 165,120 165,110 173,105" fill="#a2115c" stroke-width="1" stroke="#a2115c"></polygon><polygon points="199,110 199,120 191,125 182,120 182,110 191,105" fill="#d9177b" stroke-width="1" stroke="#d9177b"></polygon><polygon points="217,110 217,120 208,125 199,120 199,110 208,105" fill="#cb1573" stroke-width="1" stroke="#cb1573"></polygon><polygon points="234,110 234,120 225,125 217,120 217,110 225,105" fill="#e21880" stroke-width="1" stroke="#e21880"></polygon><polygon points="251,110 251,120 242,125 234,120 234,110 242,105" fill="#cb1573" stroke-width="1" stroke="#cb1573"></polygon><polygon points="268,110 268,120 260,125 251,120 251,110 260,105" fill="#e82188" stroke-width="1" stroke="#e82188"></polygon><polygon points="286,110 286,120 277,125 268,120 268,110 277,105" fill="#ed50a1" stroke-width="1" stroke="#ed50a1"></polygon><polygon points="69,125 69,135 61,140 52,135 52,125 61,120" fill="#ee5da8" stroke-width="1" stroke="#ee5da8"></polygon><polygon points="87,125 87,135 78,140 69,135 69,125 78,120" fill="#e92f8f" stroke-width="1" stroke="#e92f8f"></polygon><polygon points="104,125 104,135 95,140 87,135 87,125 95,120" fill="#ea3492" stroke-width="1" stroke="#ea3492"></polygon><polygon points="121,125 121,135 113,140 104,135 104,125 113,120" fill="#e71883" stroke-width="1" stroke="#e71883"></polygon><polygon points="139,125 139,135 130,140 121,135 121,125 130,120" fill="#af1264" stroke-width="1" stroke="#af1264"></polygon><polygon points="156,125 156,135 147,140 139,135 139,125 147,120" fill="#e71883" stroke-width="1" stroke="#e71883"></polygon><polygon points="173,125 173,135 165,140 156,135 156,125 165,120" fill="#cb1573" stroke-width="1" stroke="#cb1573"></polygon><polygon points="191,125 191,135 182,140 173,135 173,125 182,120" fill="#d01676" stroke-width="1" stroke="#d01676"></polygon><polygon points="208,125 208,135 199,140 191,135 191,125 199,120" fill="#e71d85" stroke-width="1" stroke="#e71d85"></polygon><polygon points="225,125 225,135 217,140 208,135 208,125 217,120" fill="#d01676" stroke-width="1" stroke="#d01676"></polygon><polygon points="242,125 242,135 234,140 225,135 225,125 234,120" fill="#ea3994" stroke-width="1" stroke="#ea3994"></polygon><polygon points="260,125 260,135 251,140 242,135 242,125 251,120" fill="#e8268a" stroke-width="1" stroke="#e8268a"></polygon><polygon points="277,125 277,135 268,140 260,135 260,125 268,120" fill="#eb3d97" stroke-width="1" stroke="#eb3d97"></polygon><polygon points="61,140 61,150 52,155 43,150 43,140 52,135" fill="#ee59a6" stroke-width="1" stroke="#ee59a6"></polygon><polygon points="78,140 78,150 69,155 61,150 61,140 69,135" fill="#ef62ab" stroke-width="1" stroke="#ef62ab"></polygon><polygon points="95,140 95,150 87,155 78,150 78,140 87,135" fill="#e8268a" stroke-width="1" stroke="#e8268a"></polygon><polygon points="113,140 113,150 104,155 95,150 95,140 104,135" fill="#ed50a1" stroke-width="1" stroke="#ed50a1"></polygon><polygon points="130,140 130,150 121,155 113,150 113,140 121,135" fill="#e92b8d" stroke-width="1" stroke="#e92b8d"></polygon><polygon points="147,140 147,150 139,155 130,150 130,140 139,135" fill="#cb1573" stroke-width="1" stroke="#cb1573"></polygon><polygon points="165,140 165,150 156,155 147,150 147,140 156,135" fill="#c61571" stroke-width="1" stroke="#c61571"></polygon><polygon points="182,140 182,150 173,155 165,150 165,140 173,135" fill="#e21880" stroke-width="1" stroke="#e21880"></polygon><polygon points="199,140 199,150 191,155 182,150 182,140 191,135" fill="#e71883" stroke-width="1" stroke="#e71883"></polygon><polygon points="217,140 217,150 208,155 199,150 199,140 208,135" fill="#e71883" stroke-width="1" stroke="#e71883"></polygon><polygon points="234,140 234,150 225,155 217,150 217,140 225,135" fill="#eb3d97" stroke-width="1" stroke="#eb3d97"></polygon><polygon points="251,140 251,150 242,155 234,150 234,140 242,135" fill="#e92b8d" stroke-width="1" stroke="#e92b8d"></polygon><polygon points="268,140 268,150 260,155 251,150 251,140 260,135" fill="#ee59a6" stroke-width="1" stroke="#ee59a6"></polygon><polygon points="87,155 87,165 78,170 69,165 69,155 78,150" fill="#eb3d97" stroke-width="1" stroke="#eb3d97"></polygon><polygon points="104,155 104,165 95,170 87,165 87,155 95,150" fill="#eb3d97" stroke-width="1" stroke="#eb3d97"></polygon><polygon points="121,155 121,165 113,170 104,165 104,155 113,150" fill="#ec469c" stroke-width="1" stroke="#ec469c"></polygon><polygon points="139,155 139,165 130,170 121,165 121,155 130,150" fill="#de177e" stroke-width="1" stroke="#de177e"></polygon><polygon points="156,155 156,165 147,170 139,165 139,155 147,150" fill="#e21880" stroke-width="1" stroke="#e21880"></polygon><polygon points="173,155 173,165 165,170 156,165 156,155 165,150" fill="#e21880" stroke-width="1" stroke="#e21880"></polygon><polygon points="191,155 191,165 182,170 173,165 173,155 182,150" fill="#e92b8d" stroke-width="1" stroke="#e92b8d"></polygon><polygon points="208,155 208,165 199,170 191,165 191,155 199,150" fill="#eb4299" stroke-width="1" stroke="#eb4299"></polygon><polygon points="225,155 225,165 217,170 208,165 208,155 217,150" fill="#ed54a3" stroke-width="1" stroke="#ed54a3"></polygon><polygon points="242,155 242,165 234,170 225,165 225,155 234,150" fill="#ee59a6" stroke-width="1" stroke="#ee59a6"></polygon><polygon points="130,170 130,180 121,185 113,180 113,170 121,165" fill="#ec4b9e" stroke-width="1" stroke="#ec4b9e"></polygon><polygon points="147,170 147,180 139,185 130,180 130,170 139,165" fill="#eb3d97" stroke-width="1" stroke="#eb3d97"></polygon><polygon points="165,170 165,180 156,185 147,180 147,170 156,165" fill="#ed54a3" stroke-width="1" stroke="#ed54a3"></polygon><polygon points="182,170 182,180 173,185 165,180 165,170 173,165" fill="#eb3d97" stroke-width="1" stroke="#eb3d97"></polygon><polygon points="199,170 199,180 191,185 182,180 182,170 191,165" fill="#ed54a3" stroke-width="1" stroke="#ed54a3"></polygon><polygon points="217,170 217,180 208,185 199,180 199,170 208,165" fill="#eb4299" stroke-width="1" stroke="#eb4299"></polygon><polygon points="234,170 234,180 225,185 217,180 217,170 225,165" fill="#ee5da8" stroke-width="1" stroke="#ee5da8"></polygon><polygon points="139,185 139,195 130,200 121,195 121,185 130,180" fill="#ec469c" stroke-width="1" stroke="#ec469c"></polygon><polygon points="173,185 173,195 165,200 156,195 156,185 165,180" fill="#ef62ab" stroke-width="1" stroke="#ef62ab"></polygon><polygon points="191,185 191,195 182,200 173,195 173,185 182,180" fill="#eb4299" stroke-width="1" stroke="#eb4299"></polygon><polygon points="217,200 217,210 208,215 199,210 199,200 208,195" fill="#ee5da8" stroke-width="1" stroke="#ee5da8"></polygon></svg>