<svg xmlns="http://www.w3.org/2000/svg" version="1.1" xmlns:xlink="http://www.w3.org/1999/xlink" xmlns:svgjs="http://svgjs.com/svgjs" width="300" height="200" viewBox="0 0 300 200" style="background-color: rgba(45,64,89,0)"><polygon points="61,-10 61,0 52,5 43,0 43,-10 52,-15" fill="#cb1573" stroke-width="1" stroke="#cb1573"></polygon><polygon points="78,-10 78,0 69,5 61,0 61,-10 69,-15" fill="#730c41" stroke-width="1" stroke="#730c41"></polygon><polygon points="268,-10 268,0 260,5 251,0 251,-10 260,-15" fill="#730c41" stroke-width="1" stroke="#730c41"></polygon><polygon points="286,-10 286,0 277,5 268,0 268,-10 277,-15" fill="#e21880" stroke-width="1" stroke="#e21880"></polygon><polygon points="52,5 52,15 43,20 35,15 35,5 43,0" fill="#e71883" stroke-width="1" stroke="#e71883"></polygon><polygon points="69,5 69,15 61,20 52,15 52,5 61,0" fill="#941054" stroke-width="1" stroke="#941054"></polygon><polygon points="87,5 87,15 78,20 69,15 69,5 78,0" fill="#410725" stroke-width="1" stroke="#410725"></polygon><polygon points="242,5 242,15 234,20 225,15 225,5 234,0" fill="#4e082d" stroke-width="1" stroke="#4e082d"></polygon><polygon points="260,5 260,15 251,20 242,15 242,5 251,0" fill="#9d1059" stroke-width="1" stroke="#9d1059"></polygon><polygon points="277,5 277,15 268,20 260,15 260,5 268,0" fill="#e8268a" stroke-width="1" stroke="#e8268a"></polygon><polygon points="78,20 78,30 69,35 61,30 61,20 69,15" fill="#d41678" stroke-width="1" stroke="#d41678"></polygon><polygon points="95,20 95,30 87,35 78,30 78,20 87,15" fill="#53092f" stroke-width="1" stroke="#53092f"></polygon><polygon points="251,20 251,30 242,35 234,30 234,20 242,15" fill="#610a37" stroke-width="1" stroke="#610a37"></polygon><polygon points="268,20 268,30 260,35 251,30 251,20 260,15" fill="#ab1261" stroke-width="1" stroke="#ab1261"></polygon><polygon points="286,20 286,30 277,35 268,30 268,20 277,15" fill="#ed54a3" stroke-width="1" stroke="#ed54a3"></polygon><polygon points="69,35 69,45 61,50 52,45 52,35 61,30" fill="#d9177b" stroke-width="1" stroke="#d9177b"></polygon><polygon points="87,35 87,45 78,50 69,45 69,35 78,30" fill="#a6115e" stroke-width="1" stroke="#a6115e"></polygon><polygon points="104,35 104,45 95,50 87,45 87,35 95,30" fill="#53092f" stroke-width="1" stroke="#53092f"></polygon><polygon points="121,35 121,45 113,50 104,45 104,35 113,30" fill="#250415" stroke-width="1" stroke="#250415"></polygon><polygon points="225,35 225,45 217,50 208,45 208,35 217,30" fill="#450727" stroke-width="1" stroke="#450727"></polygon><polygon points="242,35 242,45 234,50 225,45 225,35 234,30" fill="#a6115e" stroke-width="1" stroke="#a6115e"></polygon><polygon points="260,35 260,45 251,50 242,45 242,35 251,30" fill="#e92b8d" stroke-width="1" stroke="#e92b8d"></polygon><polygon points="78,50 78,60 69,65 61,60 61,50 69,45" fill="#ee5da8" stroke-width="1" stroke="#ee5da8"></polygon><polygon points="95,50 95,60 87,65 78,60 78,50 87,45" fill="#cb1573" stroke-width="1" stroke="#cb1573"></polygon><polygon points="113,50 113,60 104,65 95,60 95,50 104,45" fill="#8f0f51" stroke-width="1" stroke="#8f0f51"></polygon><polygon points="130,50 130,60 121,65 113,60 113,50 121,45" fill="#660b3a" stroke-width="1" stroke="#660b3a"></polygon><polygon points="217,50 217,60 208,65 199,60 199,50 208,45" fill="#2e051a" stroke-width="1" stroke="#2e051a"></polygon><polygon points="234,50 234,60 225,65 217,60 217,50 225,45" fill="#7d0d47" stroke-width="1" stroke="#7d0d47"></polygon><polygon points="251,50 251,60 242,65 234,60 234,50 242,45" fill="#cb1573" stroke-width="1" stroke="#cb1573"></polygon><polygon points="268,50 268,60 260,65 251,60 251,50 260,45" fill="#ed54a3" stroke-width="1" stroke="#ed54a3"></polygon><polygon points="87,65 87,75 78,80 69,75 69,65 78,60" fill="#e8268a" stroke-width="1" stroke="#e8268a"></polygon><polygon points="104,65 104,75 95,80 87,75 87,65 95,60" fill="#860e4c" stroke-width="1" stroke="#860e4c"></polygon><polygon points="121,65 121,75 113,80 104,75 104,65 113,60" fill="#610a37" stroke-width="1" stroke="#610a37"></polygon><polygon points="139,65 139,75 130,80 121,75 121,65 130,60" fill="#4a082a" stroke-width="1" stroke="#4a082a"></polygon><polygon points="156,65 156,75 147,80 139,75 139,65 147,60" fill="#4e082d" stroke-width="1" stroke="#4e082d"></polygon><polygon points="173,65 173,75 165,80 156,75 156,65 165,60" fill="#53092f" stroke-width="1" stroke="#53092f"></polygon><polygon points="191,65 191,75 182,80 173,75 173,65 182,60" fill="#610a37" stroke-width="1" stroke="#610a37"></polygon><polygon points="208,65 208,75 199,80 191,75 191,65 199,60" fill="#8a0f4f" stroke-width="1" stroke="#8a0f4f"></polygon><polygon points="225,65 225,75 217,80 208,75 208,65 217,60" fill="#9d1059" stroke-width="1" stroke="#9d1059"></polygon><polygon points="242,65 242,75 234,80 225,75 225,65 234,60" fill="#d41678" stroke-width="1" stroke="#d41678"></polygon><polygon points="260,65 260,75 251,80 242,75 242,65 251,60" fill="#ee5da8" stroke-width="1" stroke="#ee5da8"></polygon><polygon points="95,80 95,90 87,95 78,90 78,80 87,75" fill="#e92f8f" stroke-width="1" stroke="#e92f8f"></polygon><polygon points="113,80 113,90 104,95 95,90 95,80 104,75" fill="#d01676" stroke-width="1" stroke="#d01676"></polygon><polygon points="130,80 130,90 121,95 113,90 113,80 121,75" fill="#810e49" stroke-width="1" stroke="#810e49"></polygon><polygon points="147,80 147,90 139,95 130,90 130,80 139,75" fill="#810e49" stroke-width="1" stroke="#810e49"></polygon><polygon points="165,80 165,90 156,95 147,90 147,80 156,75" fill="#6f0c3f" stroke-width="1" stroke="#6f0c3f"></polygon><polygon points="182,80 182,90 173,95 165,90 165,80 173,75" fill="#6a0b3c" stroke-width="1" stroke="#6a0b3c"></polygon><polygon points="199,80 199,90 191,95 182,90 182,80 191,75" fill="#610a37" stroke-width="1" stroke="#610a37"></polygon><polygon points="217,80 217,90 208,95 199,90 199,80 208,75" fill="#ab1261" stroke-width="1" stroke="#ab1261"></polygon><polygon points="234,80 234,90 225,95 217,90 217,80 225,75" fill="#e82188" stroke-width="1" stroke="#e82188"></polygon><polygon points="251,80 251,90 242,95 234,90 234,80 242,75" fill="#ec469c" stroke-width="1" stroke="#ec469c"></polygon><polygon points="104,95 104,105 95,110 87,105 87,95 95,90" fill="#e92f8f" stroke-width="1" stroke="#e92f8f"></polygon><polygon points="121,95 121,105 113,110 104,105 104,95 113,90" fill="#d9177b" stroke-width="1" stroke="#d9177b"></polygon><polygon points="139,95 139,105 130,110 121,105 121,95 130,90" fill="#b91369" stroke-width="1" stroke="#b91369"></polygon><polygon points="156,95 156,105 147,110 139,105 139,95 147,90" fill="#810e49" stroke-width="1" stroke="#810e49"></polygon><polygon points="173,95 173,105 165,110 156,105 156,95 165,90" fill="#810e49" stroke-width="1" stroke="#810e49"></polygon><polygon points="191,95 191,105 182,110 173,105 173,95 182,90" fill="#bd146b" stroke-width="1" stroke="#bd146b"></polygon><polygon points="208,95 208,105 199,110 191,105 191,95 199,90" fill="#b91369" stroke-width="1" stroke="#b91369"></polygon><polygon points="225,95 225,105 217,110 208,105 208,95 217,90" fill="#eb4299" stroke-width="1" stroke="#eb4299"></polygon><polygon points="113,110 113,120 104,125 95,120 95,110 104,105" fill="#ed50a1" stroke-width="1" stroke="#ed50a1"></polygon><polygon points="130,110 130,120 121,125 113,120 113,110 121,105" fill="#e71d85" stroke-width="1" stroke="#e71d85"></polygon><polygon points="147,110 147,120 139,125 130,120 130,110 139,105" fill="#bd146b" stroke-width="1" stroke="#bd146b"></polygon><polygon points="165,110 165,120 156,125 147,120 147,110 156,105" fill="#e21880" stroke-width="1" stroke="#e21880"></polygon><polygon points="182,110 182,120 173,125 165,120 165,110 173,105" fill="#af1264" stroke-width="1" stroke="#af1264"></polygon><polygon points="199,110 199,120 191,125 182,120 182,110 191,105" fill="#e82188" stroke-width="1" stroke="#e82188"></polygon><polygon points="217,110 217,120 208,125 199,120 199,110 208,105" fill="#ea3492" stroke-width="1" stroke="#ea3492"></polygon><polygon points="139,125 139,135 130,140 121,135 121,125 130,120" fill="#e21880" stroke-width="1" stroke="#e21880"></polygon><polygon points="156,125 156,135 147,140 139,135 139,125 147,120" fill="#eb3d97" stroke-width="1" stroke="#eb3d97"></polygon><polygon points="173,125 173,135 165,140 156,135 156,125 165,120" fill="#e82188" stroke-width="1" stroke="#e82188"></polygon><polygon points="191,125 191,135 182,140 173,135 173,125 182,120" fill="#ea3492" stroke-width="1" stroke="#ea3492"></polygon><polygon points="147,140 147,150 139,155 130,150 130,140 139,135" fill="#ec469c" stroke-width="1" stroke="#ec469c"></polygon><polygon points="165,140 165,150 156,155 147,150 147,140 156,135" fill="#ea3492" stroke-width="1" stroke="#ea3492"></polygon><polygon points="182,140 182,150 173,155 165,150 165,140 173,135" fill="#ed50a1" stroke-width="1" stroke="#ed50a1"></polygon><polygon points="199,140 199,150 191,155 182,150 182,140 191,135" fill="#ef62ab" stroke-width="1" stroke="#ef62ab"></polygon><polygon points="173,155 173,165 165,170 156,165 156,155 165,150" fill="#ef62ab" stroke-width="1" stroke="#ef62ab"></polygon></svg>