<svg xmlns="http://www.w3.org/2000/svg" version="1.1" xmlns:xlink="http://www.w3.org/1999/xlink" xmlns:svgjs="http://svgjs.com/svgjs" width="300" height="200" viewBox="0 0 300 200" style="background-color: rgba(45,64,89,0)"><polygon points="234,50 234,60 225,65 217,60 217,50 225,45" fill="#4e082d" stroke-width="1" stroke="#4e082d"></polygon><polygon points="251,50 251,60 242,65 234,60 234,50 242,45" fill="#4e082d" stroke-width="1" stroke="#4e082d"></polygon><polygon points="268,50 268,60 260,65 251,60 251,50 260,45" fill="#2a0418" stroke-width="1" stroke="#2a0418"></polygon><polygon points="191,65 191,75 182,80 173,75 173,65 182,60" fill="#5c0a34" stroke-width="1" stroke="#5c0a34"></polygon><polygon points="208,65 208,75 199,80 191,75 191,65 199,60" fill="#a2115c" stroke-width="1" stroke="#a2115c"></polygon><polygon points="225,65 225,75 217,80 208,75 208,65 217,60" fill="#9d1059" stroke-width="1" stroke="#9d1059"></polygon><polygon points="242,65 242,75 234,80 225,75 225,65 234,60" fill="#860e4c" stroke-width="1" stroke="#860e4c"></polygon><polygon points="260,65 260,75 251,80 242,75 242,65 251,60" fill="#610a37" stroke-width="1" stroke="#610a37"></polygon><polygon points="277,65 277,75 268,80 260,75 260,65 268,60" fill="#2a0418" stroke-width="1" stroke="#2a0418"></polygon><polygon points="9,80 9,90 0,95 -9,90 -9,80 0,75" fill="#981056" stroke-width="1" stroke="#981056"></polygon><polygon points="26,80 26,90 17,95 9,90 9,80 17,75" fill="#410725" stroke-width="1" stroke="#410725"></polygon><polygon points="182,80 182,90 173,95 165,90 165,80 173,75" fill="#53092f" stroke-width="1" stroke="#53092f"></polygon><polygon points="199,80 199,90 191,95 182,90 182,80 191,75" fill="#860e4c" stroke-width="1" stroke="#860e4c"></polygon><polygon points="217,80 217,90 208,95 199,90 199,80 208,75" fill="#e71d85" stroke-width="1" stroke="#e71d85"></polygon><polygon points="234,80 234,90 225,95 217,90 217,80 225,75" fill="#ec4b9e" stroke-width="1" stroke="#ec4b9e"></polygon><polygon points="251,80 251,90 242,95 234,90 234,80 242,75" fill="#e8268a" stroke-width="1" stroke="#e8268a"></polygon><polygon points="268,80 268,90 260,95 251,90 251,80 260,75" fill="#bd146b" stroke-width="1" stroke="#bd146b"></polygon><polygon points="286,80 286,90 277,95 268,90 268,80 277,75" fill="#b41366" stroke-width="1" stroke="#b41366"></polygon><polygon points="303,80 303,90 294,95 286,90 286,80 294,75" fill="#610a37" stroke-width="1" stroke="#610a37"></polygon><polygon points="17,95 17,105 9,110 0,105 0,95 9,90" fill="#cb1573" stroke-width="1" stroke="#cb1573"></polygon><polygon points="35,95 35,105 26,110 17,105 17,95 26,90" fill="#410725" stroke-width="1" stroke="#410725"></polygon><polygon points="156,95 156,105 147,110 139,105 139,95 147,90" fill="#37061f" stroke-width="1" stroke="#37061f"></polygon><polygon points="173,95 173,105 165,110 156,105 156,95 165,90" fill="#941054" stroke-width="1" stroke="#941054"></polygon><polygon points="191,95 191,105 182,110 173,105 173,95 182,90" fill="#eb4299" stroke-width="1" stroke="#eb4299"></polygon><polygon points="208,95 208,105 199,110 191,105 191,95 199,90" fill="#ee59a6" stroke-width="1" stroke="#ee59a6"></polygon><polygon points="277,95 277,105 268,110 260,105 260,95 268,90" fill="#e82188" stroke-width="1" stroke="#e82188"></polygon><polygon points="294,95 294,105 286,110 277,105 277,95 286,90" fill="#b91369" stroke-width="1" stroke="#b91369"></polygon><polygon points="312,95 312,105 303,110 294,105 294,95 303,90" fill="#2e051a" stroke-width="1" stroke="#2e051a"></polygon><polygon points="26,110 26,120 17,125 9,120 9,110 17,105" fill="#ed54a3" stroke-width="1" stroke="#ed54a3"></polygon><polygon points="43,110 43,120 35,125 26,120 26,110 35,105" fill="#af1264" stroke-width="1" stroke="#af1264"></polygon><polygon points="61,110 61,120 52,125 43,120 43,110 52,105" fill="#660b3a" stroke-width="1" stroke="#660b3a"></polygon><polygon points="147,110 147,120 139,125 130,120 130,110 139,105" fill="#410725" stroke-width="1" stroke="#410725"></polygon><polygon points="165,110 165,120 156,125 147,120 147,110 156,105" fill="#cb1573" stroke-width="1" stroke="#cb1573"></polygon><polygon points="182,110 182,120 173,125 165,120 165,110 173,105" fill="#e82188" stroke-width="1" stroke="#e82188"></polygon><polygon points="303,110 303,120 294,125 286,120 286,110 294,105" fill="#ec469c" stroke-width="1" stroke="#ec469c"></polygon><polygon points="320,110 320,120 312,125 303,120 303,110 312,105" fill="#b41366" stroke-width="1" stroke="#b41366"></polygon><polygon points="35,125 35,135 26,140 17,135 17,125 26,120" fill="#e92f8f" stroke-width="1" stroke="#e92f8f"></polygon><polygon points="52,125 52,135 43,140 35,135 35,125 43,120" fill="#d41678" stroke-width="1" stroke="#d41678"></polygon><polygon points="69,125 69,135 61,140 52,135 52,125 61,120" fill="#981056" stroke-width="1" stroke="#981056"></polygon><polygon points="87,125 87,135 78,140 69,135 69,125 78,120" fill="#580932" stroke-width="1" stroke="#580932"></polygon><polygon points="104,125 104,135 95,140 87,135 87,125 95,120" fill="#6a0b3c" stroke-width="1" stroke="#6a0b3c"></polygon><polygon points="121,125 121,135 113,140 104,135 104,125 113,120" fill="#810e49" stroke-width="1" stroke="#810e49"></polygon><polygon points="139,125 139,135 130,140 121,135 121,125 130,120" fill="#8f0f51" stroke-width="1" stroke="#8f0f51"></polygon><polygon points="156,125 156,135 147,140 139,135 139,125 147,120" fill="#ed50a1" stroke-width="1" stroke="#ed50a1"></polygon><polygon points="312,125 312,135 303,140 294,135 294,125 303,120" fill="#ec469c" stroke-width="1" stroke="#ec469c"></polygon><polygon points="329,125 329,135 320,140 312,135 312,125 320,120" fill="#941054" stroke-width="1" stroke="#941054"></polygon><polygon points="61,140 61,150 52,155 43,150 43,140 52,135" fill="#e92f8f" stroke-width="1" stroke="#e92f8f"></polygon><polygon points="78,140 78,150 69,155 61,150 61,140 69,135" fill="#de177e" stroke-width="1" stroke="#de177e"></polygon><polygon points="95,140 95,150 87,155 78,150 78,140 87,135" fill="#941054" stroke-width="1" stroke="#941054"></polygon><polygon points="113,140 113,150 104,155 95,150 95,140 104,135" fill="#d01676" stroke-width="1" stroke="#d01676"></polygon><polygon points="130,140 130,150 121,155 113,150 113,140 121,135" fill="#d9177b" stroke-width="1" stroke="#d9177b"></polygon><polygon points="147,140 147,150 139,155 130,150 130,140 139,135" fill="#e82188" stroke-width="1" stroke="#e82188"></polygon><polygon points="69,155 69,165 61,170 52,165 52,155 61,150" fill="#ee59a6" stroke-width="1" stroke="#ee59a6"></polygon><polygon points="87,155 87,165 78,170 69,165 69,155 78,150" fill="#e82188" stroke-width="1" stroke="#e82188"></polygon><polygon points="104,155 104,165 95,170 87,165 87,155 95,150" fill="#e92f8f" stroke-width="1" stroke="#e92f8f"></polygon></svg>