<svg xmlns="http://www.w3.org/2000/svg" viewBox="0 0 100 100"><defs><style>.a{fill:currentColor;}</style></defs><path class="a" d="M85.21,62.73,90.64,43.4l.78-2.76a4.5,4.5,0,0,0-8.68-2.4L77.31,57.57l-.77,2.76a4.5,4.5,0,1,0,8.67,2.4Z"/><path class="a" d="M36.17,90.49,52.07,82,77.31,68.53l5.84-3.11a4.54,4.54,0,0,0,1.61-6.16,4.6,4.6,0,0,0-6.16-1.61L62.7,66.13,37.46,79.61l-5.84,3.11A4.55,4.55,0,0,0,30,88.88a4.6,4.6,0,0,0,6.16,1.61Z"/><path class="a" d="M49.65,28.39,42.83,47.74,32.05,78.32l-2.49,7.09A4.53,4.53,0,0,0,32.7,91a4.62,4.62,0,0,0,5.54-3.15l6.81-19.35L55.83,37.87l2.5-7.08a4.53,4.53,0,0,0-3.15-5.54,4.61,4.61,0,0,0-5.53,3.14Z"/><path class="a" d="M68,15.85,53.76,24.47l-2,1.23a4.5,4.5,0,1,0,4.54,7.78l14.21-8.62,2-1.24A4.5,4.5,0,0,0,68,15.85Z"/><path class="a" d="M9.6,40l.77,16.44.12,2.36a4.5,4.5,0,0,0,9,0L18.71,42.4,18.6,40a4.5,4.5,0,0,0-9,0Z"/><path class="a" d="M36.19,83.42l-8-6.52L27,76A3.36,3.36,0,0,0,25.58,75a3.41,3.41,0,0,0-1.73-.39,4.51,4.51,0,0,0-4.5,4.5,4.42,4.42,0,0,0,1.32,3.19l8,6.52,1.15.94a3.36,3.36,0,0,0,1.45.93,3.41,3.41,0,0,0,1.73.39,4.51,4.51,0,0,0,4.5-4.5,4.39,4.39,0,0,0-1.32-3.19Z"/><path class="a" d="M11.1,61.12l7.77,17.79L20,81.41c.95,2.17,4.28,2.83,6.16,1.62,2.25-1.45,2.63-3.84,1.62-6.16L20,59.08l-1.1-2.51c-.94-2.16-4.28-2.82-6.15-1.61-2.25,1.45-2.63,3.84-1.62,6.16Z"/><path class="a" d="M15.3,44.38l34.87-9.14,5-1.31a4.5,4.5,0,1,0-2.39-8.68L17.92,34.39l-5,1.31a4.5,4.5,0,0,0,2.4,8.68Z"/><path class="a" d="M90.26,36.26,75.55,19l-2.13-2.48a4.51,4.51,0,0,0-6.36,0,4.6,4.6,0,0,0,0,6.36L81.77,40.14l2.13,2.48a4.51,4.51,0,0,0,6.36,0,4.6,4.6,0,0,0,0-6.36Z"/><path class="a" d="M77,63.8l3.62,6.53.52.94a4.6,4.6,0,0,0,2.69,2.06,4.5,4.5,0,0,0,5.53-3.14,4.82,4.82,0,0,0-.45-3.47l-3.62-6.53-.52-.93a4.49,4.49,0,0,0-6.16-1.61,4.5,4.5,0,0,0-2.06,2.68A4.77,4.77,0,0,0,77,63.8Z"/><path class="a" d="M29.56,87.8l1.8,6.26.27.91a4.48,4.48,0,0,0,5.53,3.14A4.55,4.55,0,0,0,39.85,96a4.61,4.61,0,0,0,.45-3.47l-1.8-6.25-.26-.91a4.69,4.69,0,0,0-2.07-2.69,4.62,4.62,0,0,0-3.47-.45A4.51,4.51,0,0,0,30,84.34a4.64,4.64,0,0,0-.45,3.46Z"/><path class="a" d="M17.28,36.86l-5.17-4.19-.74-.59a3.3,3.3,0,0,0-1.45-.93,3.41,3.41,0,0,0-1.73-.39,3.41,3.41,0,0,0-1.73.39A3.36,3.36,0,0,0,5,32.08a4.53,4.53,0,0,0-1.32,3.18l.16,1.2a4.52,4.52,0,0,0,1.16,2l5.17,4.19.74.59a3.36,3.36,0,0,0,1.45.93,3.41,3.41,0,0,0,1.73.39,3.41,3.41,0,0,0,1.73-.39,3.36,3.36,0,0,0,1.45-.93A4.53,4.53,0,0,0,18.6,40l-.16-1.2a4.43,4.43,0,0,0-1.16-2Z"/><path class="a" d="M74.58,18.54,72.25,7.83,71.92,6.3a4.54,4.54,0,0,0-5.54-3.14A4.61,4.61,0,0,0,63.24,8.7l2.33,10.71.33,1.53a4.53,4.53,0,0,0,5.53,3.14,4.62,4.62,0,0,0,3.15-5.54Z"/><path class="a" d="M86.62,44.29H94A4.65,4.65,0,0,0,97.18,43a4.6,4.6,0,0,0,1.32-3.19,4.51,4.51,0,0,0-1.32-3.18A4.66,4.66,0,0,0,94,35.29H86.62a4.64,4.64,0,0,0-3.18,1.32,4.5,4.5,0,0,0,0,6.37,4.7,4.7,0,0,0,3.18,1.31Z"/><path class="a" d="M21.61,75.58l-11.3,8.07L8.69,84.81A4.87,4.87,0,0,0,6.62,87.5,4.5,4.5,0,0,0,9.76,93a4.43,4.43,0,0,0,3.47-.46l11.3-8.07,1.62-1.16a4.86,4.86,0,0,0,2.07-2.68,4.62,4.62,0,0,0-.46-3.47,4.54,4.54,0,0,0-2.69-2.07,4.44,4.44,0,0,0-3.46.45Z"/></svg>