<svg xmlns="http://www.w3.org/2000/svg" viewBox="0 0 145 100"><defs><style>polygon{stroke:#333;stroke-miterlimit:10;stroke-width:3px;}</style></defs><polygon points="94.73 -10.68 94.75 16.28 71.83 29.77 48.91 16.3 48.89 -10.66 71.81 -24.16 94.73 -10.68"/><polygon points="148.67 -10.67 148.67 16.29 125.75 29.77 102.83 16.29 102.83 -10.67 125.75 -24.16 148.67 -10.67"/><polygon points="69.12 36.52 69.12 63.48 44.85 76.97 21.93 63.48 21.93 36.52 44.85 23.03 69.12 36.52"/><polygon points="121.71 36.52 121.71 63.48 98.79 76.97 75.86 63.48 75.86 36.52 98.79 23.03 121.71 36.52"/><polygon points="42.16 82.36 42.16 109.33 17.89 122.81 -5.03 109.33 -5.03 82.36 17.89 68.88 42.16 82.36"/><polygon points="94.74 82.36 94.74 109.33 71.82 122.81 48.9 109.33 48.9 82.36 71.82 68.88 94.74 82.36"/></svg>
